<?xml version="1.0" encoding="UTF-8" standalone="no"?>
<!-- Created with Inkscape (http://www.inkscape.org/) -->

<svg
   width="511.70786mm"
   height="113.24989mm"
   viewBox="43.845 65.679 330.09292 73.055328"
   version="1.1"
   id="svg8"
   inkscape:version="1.2.2 (b0a84865, 2022-12-01)"
   sodipodi:docname="lepbase-text-orange.svg"
   xml:space="preserve"
   inkscape:export-filename="lepbase-text-orange.png"
   inkscape:export-xdpi="96"
   inkscape:export-ydpi="96"
   xmlns:inkscape="http://www.inkscape.org/namespaces/inkscape"
   xmlns:sodipodi="http://sodipodi.sourceforge.net/DTD/sodipodi-0.dtd"
   xmlns="http://www.w3.org/2000/svg"
   xmlns:svg="http://www.w3.org/2000/svg"
   xmlns:rdf="http://www.w3.org/1999/02/22-rdf-syntax-ns#"
   xmlns:cc="http://creativecommons.org/ns#"
   xmlns:dc="http://purl.org/dc/elements/1.1/"><defs
     id="defs2"><clipPath
       clipPathUnits="userSpaceOnUse"
       id="clipPath1555"><rect
         style="fill:#31323f;fill-opacity:1;stroke:none;stroke-width:1.42028;stroke-miterlimit:4;stroke-dasharray:none;stroke-opacity:0.501961"
         id="rect1557"
         width="135.46666"
         height="135.46666"
         x="43.845234"
         y="65.678574" /></clipPath><clipPath
       clipPathUnits="userSpaceOnUse"
       id="clipPath1559"><rect
         style="fill:#31323f;fill-opacity:1;stroke:none;stroke-width:1.42028;stroke-miterlimit:4;stroke-dasharray:none;stroke-opacity:0.501961"
         id="rect1561"
         width="135.46666"
         height="135.46666"
         x="43.845234"
         y="65.678574" /></clipPath><clipPath
       clipPathUnits="userSpaceOnUse"
       id="clipPath1563"><rect
         style="fill:#31323f;fill-opacity:1;stroke:none;stroke-width:1.42028;stroke-miterlimit:4;stroke-dasharray:none;stroke-opacity:0.501961"
         id="rect1565"
         width="135.46666"
         height="135.46666"
         x="43.845234"
         y="65.678574" /></clipPath><clipPath
       clipPathUnits="userSpaceOnUse"
       id="clipPath1567"><rect
         style="fill:#31323f;fill-opacity:1;stroke:none;stroke-width:1.42028;stroke-miterlimit:4;stroke-dasharray:none;stroke-opacity:0.501961"
         id="rect1569"
         width="135.46666"
         height="135.46666"
         x="43.845234"
         y="65.678574"
         transform="rotate(16.128394)" /></clipPath><clipPath
       clipPathUnits="userSpaceOnUse"
       id="clipPath1571"><rect
         style="fill:#31323f;fill-opacity:1;stroke:none;stroke-width:1.42028;stroke-miterlimit:4;stroke-dasharray:none;stroke-opacity:0.501961"
         id="rect1573"
         width="135.46666"
         height="135.46666"
         x="43.845234"
         y="65.678574" /></clipPath><clipPath
       clipPathUnits="userSpaceOnUse"
       id="clipPath1575"><rect
         style="fill:#31323f;fill-opacity:1;stroke:none;stroke-width:1.42028;stroke-miterlimit:4;stroke-dasharray:none;stroke-opacity:0.501961"
         id="rect1577"
         width="135.46666"
         height="135.46666"
         x="43.845234"
         y="65.678574" /></clipPath><clipPath
       clipPathUnits="userSpaceOnUse"
       id="clipPath1579"><rect
         style="fill:#31323f;fill-opacity:1;stroke:none;stroke-width:1.42028;stroke-miterlimit:4;stroke-dasharray:none;stroke-opacity:0.501961"
         id="rect1581"
         width="135.46666"
         height="135.46666"
         x="43.845234"
         y="65.678574" /></clipPath><clipPath
       clipPathUnits="userSpaceOnUse"
       id="clipPath1583"><rect
         style="fill:#31323f;fill-opacity:1;stroke:none;stroke-width:1.42028;stroke-miterlimit:4;stroke-dasharray:none;stroke-opacity:0.501961"
         id="rect1585"
         width="135.46666"
         height="135.46666"
         x="43.845234"
         y="65.678574" /></clipPath><clipPath
       clipPathUnits="userSpaceOnUse"
       id="clipPath1587"><rect
         style="fill:#31323f;fill-opacity:1;stroke:none;stroke-width:1.42028;stroke-miterlimit:4;stroke-dasharray:none;stroke-opacity:0.501961"
         id="rect1589"
         width="135.46666"
         height="135.46666"
         x="43.845234"
         y="65.678574" /></clipPath><clipPath
       clipPathUnits="userSpaceOnUse"
       id="clipPath1591"><rect
         style="fill:#31323f;fill-opacity:1;stroke:none;stroke-width:1.42028;stroke-miterlimit:4;stroke-dasharray:none;stroke-opacity:0.501961"
         id="rect1593"
         width="135.46666"
         height="135.46666"
         x="43.845234"
         y="65.678574" /></clipPath><clipPath
       clipPathUnits="userSpaceOnUse"
       id="clipPath1559-4"><rect
         style="fill:#31323f;fill-opacity:1;stroke:none;stroke-width:1.42028;stroke-miterlimit:4;stroke-dasharray:none;stroke-opacity:0.501961"
         id="rect1561-8"
         width="135.46666"
         height="135.46666"
         x="43.845234"
         y="65.678574" /></clipPath><clipPath
       clipPathUnits="userSpaceOnUse"
       id="clipPath1559-5"><rect
         style="fill:#31323f;fill-opacity:1;stroke:none;stroke-width:1.42028;stroke-miterlimit:4;stroke-dasharray:none;stroke-opacity:0.501961"
         id="rect1561-2"
         width="135.46666"
         height="135.46666"
         x="43.845234"
         y="65.678574" /></clipPath><clipPath
       clipPathUnits="userSpaceOnUse"
       id="clipPath1575-7"><rect
         style="fill:#31323f;fill-opacity:1;stroke:none;stroke-width:1.42028;stroke-miterlimit:4;stroke-dasharray:none;stroke-opacity:0.501961"
         id="rect1577-9"
         width="135.46666"
         height="135.46666"
         x="43.845234"
         y="65.678574" /></clipPath><clipPath
       clipPathUnits="userSpaceOnUse"
       id="clipPath1559-4-7"><rect
         style="fill:#31323f;fill-opacity:1;stroke:none;stroke-width:1.42028;stroke-miterlimit:4;stroke-dasharray:none;stroke-opacity:0.501961"
         id="rect1561-8-0"
         width="135.46666"
         height="135.46666"
         x="43.845234"
         y="65.678574" /></clipPath><clipPath
       clipPathUnits="userSpaceOnUse"
       id="clipPath1559-4-7-6"><rect
         style="fill:#31323f;fill-opacity:1;stroke:none;stroke-width:1.42028;stroke-miterlimit:4;stroke-dasharray:none;stroke-opacity:0.501961"
         id="rect1561-8-0-5"
         width="135.46666"
         height="135.46666"
         x="43.845234"
         y="65.678574" /></clipPath><clipPath
       clipPathUnits="userSpaceOnUse"
       id="clipPath1559-4-1"><rect
         style="fill:#31323f;fill-opacity:1;stroke:none;stroke-width:1.42028;stroke-miterlimit:4;stroke-dasharray:none;stroke-opacity:0.501961"
         id="rect1561-8-7"
         width="135.46666"
         height="135.46666"
         x="43.845234"
         y="65.678574" /></clipPath><clipPath
       clipPathUnits="userSpaceOnUse"
       id="clipPath1579-7"><rect
         style="fill:#31323f;fill-opacity:1;stroke:none;stroke-width:1.42028;stroke-miterlimit:4;stroke-dasharray:none;stroke-opacity:0.501961"
         id="rect1581-1"
         width="135.46666"
         height="135.46666"
         x="43.845234"
         y="65.678574" /></clipPath><clipPath
       clipPathUnits="userSpaceOnUse"
       id="clipPath1579-7-8"><rect
         style="fill:#31323f;fill-opacity:1;stroke:none;stroke-width:1.42028;stroke-miterlimit:4;stroke-dasharray:none;stroke-opacity:0.501961"
         id="rect1581-1-3"
         width="135.46666"
         height="135.46666"
         x="43.845234"
         y="65.678574" /></clipPath><clipPath
       clipPathUnits="userSpaceOnUse"
       id="clipPath1579-7-8-3"><rect
         style="fill:#31323f;fill-opacity:1;stroke:none;stroke-width:1.42028;stroke-miterlimit:4;stroke-dasharray:none;stroke-opacity:0.501961"
         id="rect1581-1-3-5"
         width="135.46666"
         height="135.46666"
         x="43.845234"
         y="65.678574" /></clipPath><clipPath
       clipPathUnits="userSpaceOnUse"
       id="clipPath1579-7-8-3-5"><rect
         style="fill:#31323f;fill-opacity:1;stroke:none;stroke-width:1.42028;stroke-miterlimit:4;stroke-dasharray:none;stroke-opacity:0.501961"
         id="rect1581-1-3-5-4"
         width="135.46666"
         height="135.46666"
         x="43.845234"
         y="65.678574" /></clipPath><clipPath
       clipPathUnits="userSpaceOnUse"
       id="clipPath1579-7-8-5"><rect
         style="fill:#31323f;fill-opacity:1;stroke:none;stroke-width:1.42028;stroke-miterlimit:4;stroke-dasharray:none;stroke-opacity:0.501961"
         id="rect1581-1-3-54"
         width="135.46666"
         height="135.46666"
         x="43.845234"
         y="65.678574" /></clipPath><clipPath
       clipPathUnits="userSpaceOnUse"
       id="clipPath1579-7-8-5-3"><rect
         style="fill:#31323f;fill-opacity:1;stroke:none;stroke-width:1.42028;stroke-miterlimit:4;stroke-dasharray:none;stroke-opacity:0.501961"
         id="rect1581-1-3-54-5"
         width="135.46666"
         height="135.46666"
         x="43.845234"
         y="65.678574" /></clipPath><clipPath
       clipPathUnits="userSpaceOnUse"
       id="clipPath1579-7-8-2"><rect
         style="fill:#31323f;fill-opacity:1;stroke:none;stroke-width:1.42028;stroke-miterlimit:4;stroke-dasharray:none;stroke-opacity:0.501961"
         id="rect1581-1-3-6"
         width="135.46666"
         height="135.46666"
         x="43.845234"
         y="65.678574" /></clipPath><clipPath
       clipPathUnits="userSpaceOnUse"
       id="clipPath1579-7-8-4"><rect
         style="fill:#31323f;fill-opacity:1;stroke:none;stroke-width:1.42028;stroke-miterlimit:4;stroke-dasharray:none;stroke-opacity:0.501961"
         id="rect1581-1-3-1"
         width="135.46666"
         height="135.46666"
         x="43.845234"
         y="65.678574" /></clipPath><clipPath
       clipPathUnits="userSpaceOnUse"
       id="clipPath1579-7-8-7"><rect
         style="fill:#31323f;fill-opacity:1;stroke:none;stroke-width:1.42028;stroke-miterlimit:4;stroke-dasharray:none;stroke-opacity:0.501961"
         id="rect1581-1-3-8"
         width="135.46666"
         height="135.46666"
         x="43.845234"
         y="65.678574" /></clipPath><clipPath
       clipPathUnits="userSpaceOnUse"
       id="clipPath1579-7-8-2-9"><rect
         style="fill:#31323f;fill-opacity:1;stroke:none;stroke-width:1.42028;stroke-miterlimit:4;stroke-dasharray:none;stroke-opacity:0.501961"
         id="rect1581-1-3-6-1"
         width="135.46666"
         height="135.46666"
         x="43.845234"
         y="65.678574" /></clipPath><clipPath
       clipPathUnits="userSpaceOnUse"
       id="clipPath1579-7-8-2-9-3"><rect
         style="fill:#31323f;fill-opacity:1;stroke:none;stroke-width:1.42028;stroke-miterlimit:4;stroke-dasharray:none;stroke-opacity:0.501961"
         id="rect1581-1-3-6-1-5"
         width="135.46666"
         height="135.46666"
         x="43.845234"
         y="65.678574" /></clipPath><clipPath
       clipPathUnits="userSpaceOnUse"
       id="clipPath1579-7-8-3-5-3"><rect
         style="fill:#31323f;fill-opacity:1;stroke:none;stroke-width:1.42028;stroke-miterlimit:4;stroke-dasharray:none;stroke-opacity:0.501961"
         id="rect1581-1-3-5-4-6"
         width="135.46666"
         height="135.46666"
         x="43.845234"
         y="65.678574" /></clipPath><clipPath
       clipPathUnits="userSpaceOnUse"
       id="clipPath1587-2"><rect
         style="fill:#31323f;fill-opacity:1;stroke:none;stroke-width:1.42028;stroke-miterlimit:4;stroke-dasharray:none;stroke-opacity:0.501961"
         id="rect1589-6"
         width="135.46666"
         height="135.46666"
         x="43.845234"
         y="65.678574" /></clipPath></defs><sodipodi:namedview
     id="base"
     pagecolor="#ffffff"
     bordercolor="#666666"
     borderopacity="1.0"
     inkscape:pageopacity="0.0"
     inkscape:pageshadow="2"
     inkscape:zoom="0.45604635"
     inkscape:cx="829.9595"
     inkscape:cy="215.98682"
     inkscape:document-units="mm"
     inkscape:current-layer="text21808"
     showgrid="false"
     inkscape:window-width="1440"
     inkscape:window-height="855"
     inkscape:window-x="1662"
     inkscape:window-y="25"
     inkscape:window-maximized="0"
     inkscape:snap-global="false"
     inkscape:showpageshadow="2"
     inkscape:pagecheckerboard="0"
     inkscape:deskcolor="#d1d1d1"
     showguides="false"><inkscape:grid
       type="xygrid"
       id="grid1396"
       originx="211.07236"
       originy="-31.205817" /></sodipodi:namedview><metadata
     id="metadata5"><rdf:RDF><cc:Work
         rdf:about=""><dc:format>image/svg+xml</dc:format><dc:type
           rdf:resource="http://purl.org/dc/dcmitype/StillImage" /></cc:Work></rdf:RDF></metadata><g
     inkscape:label="Layer 1"
     inkscape:groupmode="layer"
     id="layer1"
     style="display:inline"
     transform="translate(211.07235,-31.205819)"><rect
       style="display:none;fill:#31323f;fill-opacity:1;stroke:none;stroke-width:1.42028;stroke-miterlimit:4;stroke-dasharray:none;stroke-opacity:0.501961"
       id="rect815"
       width="135.46666"
       height="135.46666"
       x="43.845234"
       y="65.678574"
       clip-path="url(#clipPath1587)"
       inkscape:export-xdpi="33.750004"
       inkscape:export-ydpi="33.750004" /></g><g
     inkscape:groupmode="layer"
     id="layer2"
     inkscape:label="Layer 2"
     style="display:inline"
     transform="translate(211.07235,-31.205819)"><rect
       style="display:none;fill:#31323f;fill-opacity:1;stroke:none;stroke-width:1.42028;stroke-miterlimit:4;stroke-dasharray:none;stroke-opacity:0.501961"
       id="rect815-9"
       width="135.46666"
       height="135.46666"
       x="43.845234"
       y="65.678574"
       clip-path="url(#clipPath1587-2)"
       inkscape:export-xdpi="33.750004"
       inkscape:export-ydpi="33.750004"
       rx="12.901616"
       ry="12.901616" /></g><g
     inkscape:groupmode="layer"
     id="layer4"
     inkscape:label="Layer 3"
     transform="translate(211.07235,-31.205819)"><path
       id="path1130"
       style="fill:#ff7001;fill-opacity:1;stroke-width:0.942669;stroke-linecap:round"
       inkscape:transform-center-x="3.1911367"
       inkscape:transform-center-y="4.585192"
       d="m 155.05831,98.599091 c 11.97005,10.331619 9.62294,54.785179 -3.26626,67.618219 C 138.90285,179.05036 63.072622,155.70958 60.354847,141.56789 57.637073,127.4262 143.08825,88.267482 155.05831,98.599091 Z"
       sodipodi:nodetypes="zzzz" /><g
       aria-label="LepBase"
       id="text21808"
       style="font-size:63.2862px;-inkscape-font-specification:sans-serif;fill:none;stroke:#808080;stroke-width:0.645081;stroke-linecap:round"><path
         d="m -160.48737,154.71906 h -2.81624 q -1.70873,0 -2.81623,-1.07586 -1.10751,-1.07587 -1.10751,-3.13267 v -38.95266 l 0.41136,-0.37971 h 2.59473 q 2.02516,0 2.87952,1.04422 0.85437,1.01258 0.85437,3.2276 z m 18.22642,-5.85397 q 0,3.38581 -1.04422,4.61989 -1.04422,1.23408 -3.48074,1.23408 h -16.5177 l -3.48074,-4.93632 q 2.94281,-0.47465 6.13876,-0.69615 3.19596,-0.2215 5.79069,-0.2215 z"
         style="font-family:Signika;-inkscape-font-specification:Signika;fill:#ff7001;stroke:none"
         id="path26317" /><path
         d="m -134.65343,141.11253 v -4.74647 h 15.41019 v -0.82272 q 0,-2.21501 -0.63286,-4.05031 -0.63286,-1.86695 -2.02516,-2.97445 -1.36065,-1.10751 -3.63895,-1.10751 -3.2276,0 -4.8414,2.7213 -1.6138,2.72131 -1.6138,7.49942 v 1.99351 q 0,2.97446 0.60122,5.37933 0.63286,2.37323 2.21502,3.76553 1.58215,1.3923 4.46168,1.3923 2.40487,0 4.61989,-0.69615 2.21502,-0.69615 4.20853,-1.74037 0.82272,0.79108 1.36066,1.99351 0.56957,1.1708 0.69614,2.18338 -2.24666,1.64544 -5.41097,2.62637 -3.13266,0.9493 -6.45519,0.9493 -3.76553,0 -6.29698,-1.32901 -2.4998,-1.36066 -3.98703,-3.6706 -1.45558,-2.30995 -2.12008,-5.25276 -0.63287,-2.94281 -0.63287,-6.13876 0,-4.71482 1.45559,-8.44871 1.48722,-3.73388 4.43003,-5.88561 2.94281,-2.15173 7.30956,-2.15173 4.1136,0 6.89819,1.80365 2.81624,1.80366 4.24018,4.87304 1.42394,3.03774 1.42394,6.80327 0,1.51887 -0.12658,2.62637 -0.0949,1.07587 -0.34807,2.40488 z"
         style="font-family:Signika;-inkscape-font-specification:Signika;fill:#ff7001;stroke:none"
         id="path26319" /><path
         d="m -102.50405,123.13925 q 2.08844,0 3.037734,1.36065 0.980936,1.32901 0.980936,3.73389 v 35.88327 q 0,2.15173 -0.759434,3.16431 -0.727792,1.01258 -2.784596,1.01258 h -2.46816 l -0.37972,-0.41136 v -44.33198 l 0.37972,-0.41136 z m 23.415891,15.50512 q 0,5.66411 -1.772014,9.33471 -1.772013,3.6706 -4.556606,5.44262 -2.784593,1.77201 -5.822331,1.77201 -3.006094,0 -5.569185,-1.23408 -2.531449,-1.26573 -4.714825,-2.87952 l 0.72779,-5.15783 q 1.835304,1.42394 4.050321,2.75295 2.24666,1.29737 4.619892,1.29737 1.772014,0 3.227597,-1.20244 1.455582,-1.23408 2.309946,-3.76553 0.854364,-2.53145 0.854364,-6.39191 0,-3.76552 -0.822721,-6.07547 -0.791077,-2.34159 -2.088444,-3.41746 -1.297368,-1.07586 -2.84788,-1.07586 -1.582155,0 -3.354168,0.85436 -1.740371,0.85437 -3.227597,2.65802 -1.487225,1.80366 -2.2783,4.65154 l -1.32901,-4.8414 q 0.60122,-2.12008 2.246657,-4.14524 1.645441,-2.02516 4.050317,-3.32253 2.436519,-1.29736 5.379327,-1.29736 3.638957,0 6.043832,2.0568 2.436519,2.02516 3.638957,5.63247 1.234081,3.60731 1.234081,8.35378 z"
         style="font-family:Signika;-inkscape-font-specification:Signika;fill:#ff7001;stroke:none"
         id="path26321" /><path
         d="m -70.164881,111.39966 q 3.480741,-0.0633 6.739981,-0.12657 3.290882,-0.0949 6.423549,-0.0949 4.651536,0 7.720917,1.39229 3.069381,1.36066 4.556606,3.92375 1.518869,2.53145 1.518869,6.10712 0,2.40487 -1.075865,4.46167 -1.044223,2.0568 -2.911166,3.38581 -1.835299,1.32902 -4.303461,1.58216 v -0.91765 q 2.626377,0.0633 4.99961,1.58216 2.373232,1.51886 3.860458,4.08196 1.518869,2.56309 1.518869,5.75904 0,3.51238 -1.582155,6.32862 -1.582155,2.78459 -4.904681,4.43003 -3.322525,1.6138 -8.606923,1.6138 -3.828815,0 -7.119698,-0.0949 -3.259239,-0.0633 -6.83491,-0.12657 l -0.41136,-0.37972 v -42.52832 z m 6.265334,38.44637 q 1.993516,0 3.923745,-0.0317 1.961872,-0.0316 3.765529,-0.0316 2.563091,0 4.176889,-0.69615 1.613798,-0.72779 2.468162,-1.86694 0.886007,-1.1708 1.202438,-2.49981 0.348074,-1.32901 0.348074,-2.53144 0,-1.58216 -0.727792,-3.35417 -0.727791,-1.80366 -2.594734,-3.03774 -1.866943,-1.23408 -5.284398,-1.23408 h -9.935933 v -5.22111 h 9.303071 q 2.974452,0 4.556607,-0.98094 1.582155,-1.01258 2.151731,-2.53145 0.601219,-1.51887 0.601219,-3.03774 0,-1.55051 -0.569576,-3.03773 -0.537933,-1.48723 -2.088445,-2.46816 -1.518869,-0.98094 -4.524963,-0.98094 -1.32901,0 -3.290883,0 -1.961872,-0.0316 -3.480741,-0.0633 z"
         style="font-family:Signika;-inkscape-font-specification:Signika;fill:#ff7001;stroke:none"
         id="path26323" /><path
         d="m -35.262568,146.17543 q 0,-3.63896 1.582155,-5.94891 1.613798,-2.34159 4.335104,-3.44909 2.75295,-1.10751 6.202048,-1.10751 1.772014,0 3.987031,0.15821 2.24666,0.15822 4.176889,0.60122 v 4.39839 q -1.677084,-0.41136 -3.797172,-0.50629 -2.120088,-0.12657 -3.955388,-0.12657 -2.879522,0 -4.461677,1.48723 -1.582155,1.45558 -1.582155,4.01867 0,1.93023 1.075866,3.29088 1.107508,1.32901 3.195953,1.32901 2.309946,0 4.873037,-1.58215 2.563092,-1.6138 4.335105,-4.74647 l 1.012579,4.96797 q -1.139151,1.32901 -2.816236,2.84788 -1.677084,1.51887 -3.892101,2.59473 -2.183374,1.07587 -4.967967,1.07587 -3.132667,0 -5.221111,-1.3923 -2.056802,-1.3923 -3.069381,-3.51238 -1.012579,-2.15173 -1.012579,-4.39839 z m 26.3903456,5.56918 q -0.2215017,0.88601 -0.949293,1.89859 -0.6961486,0.98093 -1.4872256,1.48722 -1.993516,-0.41136 -3.227596,-1.48722 -1.234081,-1.07587 -1.8353,-2.56309 -0.569576,-1.51887 -0.696148,-3.19596 v -14.27104 q 0,-2.97445 -1.360654,-4.27181 -1.360653,-1.32901 -3.828815,-1.32901 -2.373233,0 -4.904681,0.72779 -2.531448,0.72779 -5.062896,1.67708 -0.759434,-0.75943 -1.297367,-2.12009 -0.506289,-1.39229 -0.569576,-2.65802 1.772014,-0.75943 4.018674,-1.42394 2.24666,-0.6645 4.58825,-1.04422 2.373232,-0.41136 4.524963,-0.41136 3.132667,0 5.442613,1.13915 2.309947,1.13915 3.575671,3.48074 1.297367,2.34159 1.297367,5.98055 v 12.97367 q 0,1.77202 0.348074,3.13267 0.3480742,1.32901 1.4239396,2.2783 z"
         style="font-family:Signika;-inkscape-font-specification:Signika;fill:#ff7001;stroke:none"
         id="path26325" /><path
         d="m -3.9675406,152.31419 q 0.063286,-1.07587 0.6961482,-2.40488 0.632862,-1.36065 1.4555827,-2.15173 1.9935153,1.07587 4.2718186,1.96187 2.2783032,0.85437 4.6198927,0.85437 2.5947342,0 4.1136034,-1.10751 1.518868,-1.10751 1.550512,-2.84788 0,-1.32901 -1.01258,-2.46816 -1.012579,-1.13915 -2.9744511,-1.86695 l -3.6705997,-1.32901 q -2.1833739,-0.82272 -4.0186738,-1.99351 -1.80365672,-1.20244 -2.9111652,-2.91117 -1.0758655,-1.74037 -1.0758655,-4.1136 0,-2.91116 1.4555827,-4.99961 1.4555826,-2.08844 3.9870307,-3.19595 2.5630911,-1.13915 5.7274012,-1.13915 2.5630907,0 5.4426137,0.6645 2.911165,0.66451 4.873037,1.6138 0.03164,0.79108 -0.221502,1.74037 -0.221501,0.91765 -0.664505,1.74037 -0.443003,0.79108 -1.012579,1.29737 -1.677084,-0.75944 -3.892101,-1.42394 -2.215017,-0.66451 -4.5882499,-0.66451 -2.0568016,0 -3.3225256,1.01258 -1.2340809,1.01258 -1.2340809,2.68967 0,1.32901 0.949293,2.21501 0.9809361,0.88601 2.9428084,1.6138 l 3.923744,1.42394 q 3.575671,1.29737 5.790688,3.57567 2.24666,2.2783 2.24666,5.98055 0,4.36674 -3.417455,6.89819 -3.417455,2.49981 -8.9866404,2.49981 -3.3225256,0 -6.17040468,-0.9493 -2.81623592,-0.94929 -4.87303752,-2.21501 z"
         style="font-family:Signika;-inkscape-font-specification:Signika;fill:#ff7001;stroke:none"
         id="path26327" /><path
         d="m 28.624732,141.11253 v -4.74647 h 15.41019 v -0.82272 q 0,-2.21501 -0.632862,-4.05031 -0.632862,-1.86695 -2.025159,-2.97445 -1.360653,-1.10751 -3.638956,-1.10751 -3.227597,0 -4.841395,2.7213 -1.613798,2.72131 -1.613798,7.49942 v 1.99351 q 0,2.97446 0.601219,5.37933 0.632862,2.37323 2.215017,3.76553 1.582155,1.3923 4.461677,1.3923 2.404876,0 4.619893,-0.69615 2.215017,-0.69615 4.208532,-1.74037 0.822721,0.79108 1.360654,1.99351 0.569575,1.1708 0.696148,2.18338 -2.24666,1.64544 -5.41097,2.62637 -3.132667,0.9493 -6.455193,0.9493 -3.765529,0 -6.296977,-1.32901 -2.499805,-1.36066 -3.987031,-3.6706 -1.455582,-2.30995 -2.120087,-5.25276 -0.632862,-2.94281 -0.632862,-6.13876 0,-4.71482 1.455582,-8.44871 1.487226,-3.73388 4.430034,-5.88561 2.942809,-2.15173 7.309557,-2.15173 4.113603,0 6.898196,1.80365 2.816236,1.80366 4.240175,4.87304 1.42394,3.03774 1.42394,6.80327 0,1.51887 -0.126573,2.62637 -0.09493,1.07587 -0.348074,2.40488 z"
         style="font-family:Signika;-inkscape-font-specification:Signika;fill:#ff7001;stroke:none"
         id="path26329" /></g></g><g
     inkscape:groupmode="layer"
     id="layer5"
     inkscape:label="Layer 4"
     transform="translate(211.07235,-31.205819)" /></svg>
