<?xml version="1.0" standalone="no"?>
<!DOCTYPE svg PUBLIC "-//W3C//DTD SVG 20010904//EN"
 "http://www.w3.org/TR/2001/REC-SVG-20010904/DTD/svg10.dtd">
<svg version="1.0" xmlns="http://www.w3.org/2000/svg"
 width="700.000000pt" height="700.000000pt" viewBox="0 0 700.000000 700.000000"
 preserveAspectRatio="xMidYMid meet">
<metadata>
Created by potrace 1.14, written by Peter Selinger 2001-2017
</metadata>
<g transform="translate(0.000000,700.000000) scale(0.100000,-0.100000)"
fill="#000000" stroke="none">
<path d="M5288 5385 c-2 -2 -37 -6 -78 -10 -41 -4 -82 -8 -90 -10 -92 -14
-117 -18 -130 -21 -341 -69 -703 -174 -1080 -314 -47 -17 -107 -39 -135 -49
-389 -142 -1110 -471 -1509 -690 -71 -39 -130 -71 -132 -71 -1 0 -76 -43 -166
-96 -697 -410 -1088 -754 -1115 -982 -25 -218 311 -491 974 -792 337 -153 829
-330 1208 -435 28 -7 84 -23 125 -35 41 -12 84 -24 95 -26 11 -2 65 -15 120
-30 55 -14 111 -28 125 -30 14 -3 41 -9 60 -14 19 -5 46 -11 60 -14 14 -2 70
-14 125 -25 55 -11 116 -23 135 -26 19 -3 53 -10 75 -15 22 -5 65 -12 95 -15
30 -4 57 -8 60 -10 3 -2 34 -6 70 -10 36 -4 67 -8 70 -10 3 -2 37 -6 75 -10
39 -4 86 -8 105 -11 209 -25 583 -25 735 1 142 24 262 64 335 110 238 150 476
666 575 1248 3 15 7 39 10 55 6 39 23 159 29 212 3 25 8 65 11 90 21 182 27
642 12 835 -12 153 -38 326 -71 470 -2 11 -7 34 -11 50 -8 37 -44 153 -55 180
-4 11 -17 45 -29 74 -68 173 -195 339 -292 381 -29 12 -64 24 -78 26 -14 2
-37 7 -51 10 -25 7 -256 14 -262 9z"/>
</g>
</svg>
